<?xml version="1.0" encoding="UTF-8" standalone="no"?>
<svg
   xmlns:dc="http://purl.org/dc/elements/1.1/"
   xmlns:cc="http://creativecommons.org/ns#"
   xmlns:rdf="http://www.w3.org/1999/02/22-rdf-syntax-ns#"
   xmlns:svg="http://www.w3.org/2000/svg"
   xmlns="http://www.w3.org/2000/svg"
   xmlns:sodipodi="http://sodipodi.sourceforge.net/DTD/sodipodi-0.dtd"
   xmlns:inkscape="http://www.inkscape.org/namespaces/inkscape"
   width="300pt"
   height="300pt"
   viewBox="0 0 300 300"
   version="1.1"
   id="svg12"
   sodipodi:docname="clipboard.svg"
   inkscape:version="1.0.2 (e86c870879, 2021-01-15)">
  <metadata
     id="metadata18">
    <rdf:RDF>
      <cc:Work
         rdf:about="">
        <dc:format>image/svg+xml</dc:format>
        <dc:type
           rdf:resource="http://purl.org/dc/dcmitype/StillImage" />
      </cc:Work>
    </rdf:RDF>
  </metadata>
  <defs
     id="defs16" />
  <sodipodi:namedview
     pagecolor="#ffffff"
     bordercolor="#666666"
     borderopacity="1"
     objecttolerance="10"
     gridtolerance="10"
     guidetolerance="10"
     inkscape:pageopacity="0"
     inkscape:pageshadow="2"
     inkscape:window-width="1920"
     inkscape:window-height="1001"
     id="namedview14"
     showgrid="false"
     inkscape:zoom="2.12"
     inkscape:cx="200"
     inkscape:cy="200"
     inkscape:window-x="-9"
     inkscape:window-y="-9"
     inkscape:window-maximized="1"
     inkscape:current-layer="svg12" />
  <g
     id="#6f20ffff">
    <path
       fill="#6f20ff"
       opacity="1"
       d="M 0,0 H 300 V 300 H 0 V 0"
       id="path2"
       sodipodi:nodetypes="ccccc" />
  </g>
  <g
     id="#ffffffff">
    <path
       fill="#ffffff"
       opacity="1.00"
       d=" M 71.24 93.25 C 75.92 91.57 81.34 94.35 83.04 98.94 C 88.90 113.31 94.82 127.66 100.53 142.08 C 102.93 147.78 98.08 154.56 92.05 154.69 C 88.24 155.06 84.27 152.91 82.86 149.28 C 76.90 134.80 70.98 120.31 65.13 105.79 C 63.03 100.84 66.11 94.71 71.24 93.25 Z"
       id="path5" />
    <path
       fill="#ffffff"
       opacity="1.00"
       d=" M 141.10 99.08 C 142.21 96.08 144.73 93.45 148.01 92.98 C 152.55 91.89 157.41 94.61 159.00 98.96 C 164.72 113.00 170.40 127.08 176.06 141.15 C 177.70 144.97 176.65 149.80 173.27 152.33 C 169.07 155.80 161.65 154.90 159.19 149.78 C 155.94 142.44 153.16 134.90 150.06 127.50 C 140.43 151.68 130.62 175.79 120.93 199.95 C 119.53 204.45 114.67 207.42 110.03 206.33 C 104.25 205.31 100.56 198.43 103.23 193.10 C 115.82 161.75 128.47 130.42 141.10 99.08 Z"
       id="path7" />
    <path
       fill="#ffffff"
       opacity="1.00"
       d=" M 223.31 93.36 C 228.15 91.47 234.15 94.29 235.70 99.27 C 236.85 102.14 235.85 105.22 234.74 107.92 C 222.31 138.79 209.98 169.71 197.54 200.57 C 195.86 205.43 189.87 207.91 185.22 205.76 C 180.41 203.90 177.99 197.86 180.20 193.18 C 192.63 162.00 205.16 130.86 217.62 99.68 C 218.61 96.96 220.44 94.31 223.31 93.36 Z"
       id="path9" />
  </g>
</svg>
